<svg xmlns="http://www.w3.org/2000/svg" xmlns:xlink="http://www.w3.org/1999/xlink" viewBox="0 0 1000 1000"><defs><style>.cls-1{isolation:isolate;}.cls-2{fill:url(#linear-gradient);}.cls-3{fill:url(#linear-gradient-2);}.cls-4{fill:url(#linear-gradient-3);}.cls-5{mix-blend-mode:overlay;}.cls-6{fill:#fff;fill-rule:evenodd;}.cls-7{fill:none;}</style><linearGradient id="linear-gradient" x1="212.51" y1="417.58" x2="766.93" y2="-136.85" gradientTransform="matrix(0.81, 0.19, -0.31, 0.78, 95.78, 181.85)" gradientUnits="userSpaceOnUse"><stop offset="0" stop-color="#ff29bf"/><stop offset="0.1" stop-color="#ff30ba"/><stop offset="0.25" stop-color="#ff43ae"/><stop offset="0.43" stop-color="#ff6398"/><stop offset="0.63" stop-color="#ff8f7b"/><stop offset="0.85" stop-color="#ffc756"/><stop offset="0.97" stop-color="#ffea3f"/></linearGradient><linearGradient id="linear-gradient-2" x1="706.81" y1="427.9" x2="1019.24" y2="115.47" gradientTransform="matrix(0.81, 0.19, -0.31, 0.78, 95.78, 181.85)" gradientUnits="userSpaceOnUse"><stop offset="0" stop-color="#ff2979"/><stop offset="0.12" stop-color="#ff3076"/><stop offset="0.3" stop-color="#ff436f"/><stop offset="0.51" stop-color="#ff6363"/><stop offset="0.74" stop-color="#ff8f52"/><stop offset="0.97" stop-color="#ffbf3f"/></linearGradient><linearGradient id="linear-gradient-3" x1="429.54" y1="704.27" x2="741.58" y2="392.22" gradientTransform="matrix(0.81, 0.19, -0.31, 0.78, 95.78, 181.85)" gradientUnits="userSpaceOnUse"><stop offset="0" stop-color="#ff2979"/><stop offset="0.15" stop-color="#ff3076"/><stop offset="0.36" stop-color="#ff436c"/><stop offset="0.61" stop-color="#ff635c"/><stop offset="0.89" stop-color="#ff8f46"/><stop offset="0.97" stop-color="#ff9d3f"/></linearGradient></defs><title>logo-cube</title><g class="cls-1"><g id="ARTBOARD_2" data-name="ARTBOARD 2"><polygon class="cls-2" points="587.15 651.87 138.02 546.7 310.51 115.82 759.64 220.99 587.15 651.87"/><polygon class="cls-3" points="587.15 651.87 661.14 892.45 833.63 461.58 759.64 220.99 587.15 651.87"/><polygon class="cls-4" points="587.15 651.87 661.14 892.45 212 786.19 138.02 545.6 587.15 651.87"/><g class="cls-5"><path class="cls-6" d="M4,997.67a1.77,1.77,0,1,1,.08-3.54A1.77,1.77,0,0,1,4,997.67Z"/><path class="cls-6" d="M4,987.23a1.31,1.31,0,1,1,0,2.61,1.31,1.31,0,0,1,0-2.61Z"/><path class="cls-6" d="M10.87,995a.36.36,0,0,1,.37.21c.24.39.49.78.71,1.19s0,.52-.3.6a1.09,1.09,0,0,1-1.24-.67.93.93,0,0,1,.29-1.23A.82.82,0,0,1,10.87,995Z"/></g><rect class="cls-7" x="-703.6" y="797.28" width="750" height="500"/></g></g></svg>